<svg width="18" height="18" viewBox="0 0 18 18" fill="none" xmlns="http://www.w3.org/2000/svg">
<path d="M14.8333 2.33333H13.1667V1.5C13.1667 1.27899 13.0789 1.06703 12.9226 0.910746C12.7663 0.754465 12.5543 0.666668 12.3333 0.666668C12.1123 0.666668 11.9003 0.754465 11.7441 0.910746C11.5878 1.06703 11.5 1.27899 11.5 1.5V2.33333H6.49999V1.5C6.49999 1.27899 6.41219 1.06703 6.25591 0.910746C6.09963 0.754465 5.88767 0.666668 5.66666 0.666668C5.44564 0.666668 5.23368 0.754465 5.0774 0.910746C4.92112 1.06703 4.83332 1.27899 4.83332 1.5V2.33333H3.16666C2.50362 2.33333 1.86773 2.59673 1.39889 3.06557C0.930049 3.53441 0.666656 4.17029 0.666656 4.83333V14.8333C0.666656 15.4964 0.930049 16.1323 1.39889 16.6011C1.86773 17.0699 2.50362 17.3333 3.16666 17.3333H14.8333C15.4964 17.3333 16.1322 17.0699 16.6011 16.6011C17.0699 16.1323 17.3333 15.4964 17.3333 14.8333V4.83333C17.3333 4.17029 17.0699 3.53441 16.6011 3.06557C16.1322 2.59673 15.4964 2.33333 14.8333 2.33333ZM15.6667 14.8333C15.6667 15.0543 15.5789 15.2663 15.4226 15.4226C15.2663 15.5789 15.0543 15.6667 14.8333 15.6667H3.16666C2.94564 15.6667 2.73368 15.5789 2.5774 15.4226C2.42112 15.2663 2.33332 15.0543 2.33332 14.8333V9H15.6667V14.8333ZM15.6667 7.33333H2.33332V4.83333C2.33332 4.61232 2.42112 4.40036 2.5774 4.24408C2.73368 4.0878 2.94564 4 3.16666 4H4.83332V4.83333C4.83332 5.05435 4.92112 5.26631 5.0774 5.42259C5.23368 5.57887 5.44564 5.66667 5.66666 5.66667C5.88767 5.66667 6.09963 5.57887 6.25591 5.42259C6.41219 5.26631 6.49999 5.05435 6.49999 4.83333V4H11.5V4.83333C11.5 5.05435 11.5878 5.26631 11.7441 5.42259C11.9003 5.57887 12.1123 5.66667 12.3333 5.66667C12.5543 5.66667 12.7663 5.57887 12.9226 5.42259C13.0789 5.26631 13.1667 5.05435 13.1667 4.83333V4H14.8333C15.0543 4 15.2663 4.0878 15.4226 4.24408C15.5789 4.40036 15.6667 4.61232 15.6667 4.83333V7.33333Z" fill="#CF196D"/>
</svg>
