<svg width="22" height="19" viewBox="0 0 22 19" fill="none" xmlns="http://www.w3.org/2000/svg">
<path d="M8.17391 5.78261C6.85323 5.78261 5.78261 4.71198 5.78261 3.3913C5.78261 2.07062 6.85323 1 8.17391 1C9.49459 1 10.5652 2.07062 10.5652 3.3913C10.5652 4.71199 9.49459 5.78261 8.17391 5.78261Z" fill="white"/>
<path d="M14.1522 17.7391C12.8315 17.7391 11.7609 16.6685 11.7609 15.3478C11.7609 14.0271 12.8315 12.9565 14.1522 12.9565C15.4729 12.9565 16.5435 14.0271 16.5435 15.3478C16.5435 16.6685 15.4729 17.7391 14.1522 17.7391Z" fill="white"/>
<path d="M10.5652 3.3913L20.1304 3.3913M10.5652 3.3913C10.5652 2.07062 9.49459 1 8.17391 1C6.85323 1 5.78261 2.07062 5.78261 3.3913M10.5652 3.3913C10.5652 4.71199 9.49459 5.78261 8.17391 5.78261C6.85323 5.78261 5.78261 4.71198 5.78261 3.3913M1 3.3913L5.78261 3.3913M16.5435 15.3478H20.1304M16.5435 15.3478C16.5435 14.0271 15.4729 12.9565 14.1522 12.9565C12.8315 12.9565 11.7609 14.0271 11.7609 15.3478C11.7609 16.6685 12.8315 17.7391 14.1522 17.7391C15.4729 17.7391 16.5435 16.6685 16.5435 15.3478ZM1 15.3478L10.5652 15.3478" stroke="black" stroke-width="2" stroke-linecap="round"/>
</svg>
